<svg xmlns="http://www.w3.org/2000/svg" width="1354.147" height="1354.147" viewBox="0 0 1354.147 1354.147">
  <g>
    <rect width="1354.147" height="1354.147" fill="#daebed"/>
    <g opacity="0.5">
      <polygon points="1354.147 1354.147 1354.147 1353.601 1353.595 1354.147 1354.147 1354.147" fill="#fff"/>
      <path d="M1288.253,1295.175v58.972h13.884l13.933-13.929h38.077v-8.252h-29.823l15.361-15.357a11.188,11.188,0,0,0,14.462-4.313v-11.67a11.247,11.247,0,0,0-19.767,10.678l-16.112,16.108v-46.457h35.879v-8.261l-43.409-.017Z" fill="#fff"/>
      <polygon points="1334.936 1205.002 1327.432 1212.503 1327.432 1150.267 1297.418 1180.3 1297.418 1242.51 1259.149 1280.835 1269.664 1280.839 1302.723 1247.814 1304.921 1247.814 1354.147 1247.814 1354.147 1239.562 1310.978 1239.562 1354.147 1196.405 1354.147 1123.536 1334.936 1142.759 1334.936 1205.002" fill="#fff"/>
      <polygon points="1344.1 1090.094 1305.832 1128.419 1316.346 1128.423 1349.406 1095.398 1351.604 1095.398 1354.147 1095.398 1354.147 1017.831 1344.1 1027.884 1344.1 1090.094" fill="#fff"/>
      <polygon points="1128.334 1354.147 1128.334 1349.365 1123.555 1354.147 1128.334 1354.147" fill="#fff"/>
      <path d="M1184.153,1345.182a11.2,11.2,0,0,0-3.232,8.965h22.4a11.254,11.254,0,0,0-19.17-8.965Z" fill="#fff"/>
      <polygon points="1135.837 1341.857 1135.837 1354.147 1165.852 1354.147 1165.852 1327.638 1218.377 1327.638 1218.377 1354.147 1225.881 1354.147 1225.881 1319.386 1158.322 1319.36 1135.837 1341.857" fill="#fff"/>
      <path d="M1120.147,1280.493v-66.84h-.035l-67.524-.027-22.484,22.5v62.242l-7.5,7.5v-62.236l-30.014,30.033v62.209l-18.246,18.273h10.569l12.982-12.969h62.227l60.029-60.012Zm-62.949,52.434h-51.052l51.775-51.761h51.608Zm55.446-60.012h-46.469l15.361-15.357a11.251,11.251,0,0,0,12.807-18.109l-.015-.013a11.251,11.251,0,0,0-18.1,12.817l-16.112,16.107V1221.9h52.526Z" fill="#fff"/>
      <polygon points="1250.735 1332.716 1250.735 1354.147 1280.75 1354.147 1280.75 1338.345 1280.75 1302.683 1262.924 1320.519 1250.735 1332.716" fill="#fff"/>
      <path d="M1152.505,1294.5h60.029l12.185-12.181,47.844-47.831V1166.97l-67.559-.026-22.484,22.5v62.243l-7.5,7.5v-62.236l-17.825,17.837-12.189,12.2v62.21l-38.269,38.325,10.515,0,33.059-33.025Zm60.029-119.274h52.526v51.01h-46.469l15.361-15.357a11.256,11.256,0,1,0-5.306-5.3l-16.112,16.107Zm-18.924,75.983,16.727-16.721h51.608l-42.761,42.3-9.57,9.465h-51.052Z" fill="#fff"/>
      <path d="M1275.885,884.609v62.243l-7.5,7.5V892.117l-17.826,17.837-12.189,12.2v62.21l-38.268,38.325,10.514,0,33.06-33.025H1305.9l12.185-12.182,36.063-36.052V930.8l-41.6,41.145-9.57,9.465h-51.052l35.049-35.039,16.726-16.721h50.446V921.4h-42.192l15.361-15.357a11.254,11.254,0,1,0-5.306-5.3L1305.9,916.846V870.39h48.248v-8.257l-55.778-.022Z" fill="#fff"/>
      <path d="M1260.2,823.245V756.4l-67.56-.026-22.484,22.5v62.242l-7.5,7.5V786.384l-17.825,17.836-12.189,12.2v62.209l-38.269,38.325,10.515,0,33.059-33.026h62.228l12.185-12.181,47.844-47.831Zm-53.38,42.968-9.57,9.466h-51.052l35.048-35.039,16.727-16.722h51.608Zm45.876-50.546h-46.469l15.361-15.357a11.256,11.256,0,1,0-5.306-5.3l-16.111,16.107V764.656h52.525Z" fill="#fff"/>
      <polygon points="1354.147 976.003 1354.147 974.367 1352.514 976.003 1354.147 976.003" fill="#fff"/>
      <polygon points="1322.567 732.193 1322.567 794.436 1315.063 801.938 1315.063 739.701 1285.049 769.734 1285.049 831.944 1246.78 870.269 1257.295 870.273 1290.355 837.248 1292.552 837.248 1352.582 837.248 1354.147 835.683 1354.147 824.559 1349.661 828.996 1298.609 828.996 1350.384 777.236 1354.147 777.236 1354.147 762.865 1352.582 764.43 1352.582 717.974 1354.147 717.974 1354.147 709.699 1345.051 709.695 1322.567 732.193" fill="#fff"/>
      <path d="M1306.877,670.829V603.988h-.036l-67.523-.026-22.485,22.5V688.7l-7.5,7.5V633.968L1179.315,664v62.21l-38.268,38.325,5.245,0,5.269,0,33.06-33.026h62.227l60.029-60.012Zm-62.95,52.434h-51.052L1244.65,671.5h51.608Zm55.446-60.013H1252.9l15.361-15.356a11.251,11.251,0,0,0,12.808-18.109l-.015-.014a11.252,11.252,0,0,0-18.1,12.818L1246.848,658.7V612.24h52.525Z" fill="#fff"/>
      <polygon points="1331.731 617.318 1331.731 679.528 1293.463 717.853 1303.977 717.857 1337.037 684.832 1339.235 684.832 1354.147 684.832 1354.147 676.58 1345.291 676.58 1354.147 667.727 1354.147 615.348 1354.147 594.889 1343.92 605.122 1331.731 617.318" fill="#fff"/>
      <path d="M1191.684,1074.566v62.21l-38.268,38.325,5.245,0,5.269,0,33.06-33.025h62.227l60.029-60.012v-67.514h-.036l-67.523-.026-22.485,22.5v62.243l-7.5,7.5v-62.236Zm64.612,59.262h-51.052l51.775-51.76h51.608Zm2.921-111.022h52.525v51.01h-46.469l15.361-15.357a11.251,11.251,0,0,0,12.808-18.109l-.015-.013a11.252,11.252,0,0,0-18.1,12.818l-16.111,16.107Z" fill="#fff"/>
      <path d="M1213.512,975.661V908.82l-67.559-.026-22.484,22.5v62.242l-7.5,7.5V938.8l-30.015,30.033v62.209l-38.268,38.325,10.514.005,33.06-33.026h62.227l60.029-60.012Zm-62.95,52.433H1099.51l51.775-51.76h51.609Zm55.447-60.011h-46.47l15.361-15.357a11.256,11.256,0,1,0-5.306-5.3l-16.111,16.107V917.072h52.526Z" fill="#fff"/>
      <path d="M1107.779,869.927v-66.84h-.036l-67.524-.027-22.484,22.5V887.8l-7.5,7.5V833.066L980.217,863.1v62.209l-38.269,38.326,5.246,0,5.269,0,33.059-33.025h62.227l60.03-60.013Zm-62.95,52.434H993.777l51.775-51.761h51.608Zm55.446-60.012h-46.469l15.361-15.357a11.251,11.251,0,0,0,12.807-18.109l-.015-.013a11.251,11.251,0,0,0-18.1,12.818L1047.749,857.8V811.338h52.526Z" fill="#fff"/>
      <path d="M877.688,1282.806v62.243l-7.5,7.5v-62.237l-17.825,17.837-12.189,12.2v33.8H879.2l9.579-9.577,16.727-16.722h51.608l-26.589,26.3h10.9l26.3-26.3v-67.513l-67.559-.027Zm30.014-14.219h52.526v51.01H913.759l15.361-15.357a11.255,11.255,0,1,0-5.306-5.3L907.7,1315.043Z" fill="#fff"/>
      <path d="M859.1,1268.47l33.06-33.025h62.227l60.029-60.013v-67.513l-67.56-.027-22.484,22.5v62.243l-7.5,7.5V1137.9l-30.014,30.033v62.209l-38.269,38.326Zm95.287-152.3h52.525v51.01H960.441l15.361-15.357a11.256,11.256,0,1,0-5.306-5.3l-16.111,16.107Zm-2.2,59.261H1003.8l-52.331,51.761H900.412Z" fill="#fff"/>
      <path d="M753.364,1162.736l33.06-33.025h62.227L908.68,1069.7v-67.514h-.036l-67.523-.027-22.485,22.5V1086.9l-7.5,7.5v-62.236L781.118,1062.2v62.208l-38.268,38.326,5.245,0Zm92.366-41.277H794.678l51.775-51.76h51.608Zm2.921-111.022h52.526v51.01h-46.47l15.361-15.356a11.251,11.251,0,0,0,12.808-18.109l-.015-.013a11.251,11.251,0,0,0-18.1,12.817l-16.111,16.107Z" fill="#fff"/>
      <path d="M1044.574,1188.762H1106.8l12.185-12.181,47.844-47.831v-67.513l-67.559-.027-22.485,22.5v62.242l-7.5,7.5v-62.236l-17.825,17.836-12.189,12.2v62.209L1001,1221.783l10.515.005Zm62.227-119.274h52.525V1120.5h-46.469l15.361-15.357a11.256,11.256,0,1,0-5.306-5.305l-16.111,16.107Zm-18.924,75.984,16.726-16.722h51.608l-42.761,42.3-9.57,9.465h-51.052Z" fill="#fff"/>
      <path d="M905.78,1116.054l33.06-33.025h62.227l12.185-12.182,47.844-47.831V955.5l-67.559-.027-22.485,22.5v62.243l-7.5,7.5V985.482l-17.826,17.837-12.189,12.2v62.209l-38.268,38.326Zm95.287-152.3h52.526v51.011h-46.47l15.361-15.357a11.255,11.255,0,1,0-5.306-5.3l-16.111,16.107Zm-18.924,75.984,16.726-16.722h51.608l-42.761,42.295-9.57,9.466H947.094Z" fill="#fff"/>
      <polygon points="594.866 1354.147 662.899 1354.147 662.899 1353.699 595.34 1353.673 594.866 1354.147" fill="#fff"/>
      <polygon points="725.272 1329.489 725.272 1354.147 755.286 1354.147 755.286 1315.269 807.812 1315.269 807.812 1354.147 815.315 1354.147 815.315 1307.017 747.756 1306.99 725.272 1329.489" fill="#fff"/>
      <polygon points="717.768 1354.147 717.768 1336.997 700.628 1354.147 717.768 1354.147" fill="#fff"/>
      <path d="M773.587,1332.814a11.263,11.263,0,0,0-2.189,12.8l-8.531,8.529h10.611l3.226-3.224a11.253,11.253,0,1,0-3.117-18.109Z" fill="#fff"/>
      <path d="M709.582,1268.8v-67.514h-.036l-67.524-.026-22.484,22.5V1286l-7.5,7.5v-62.236L582.02,1261.3v62.209l-30.6,30.642h10.538l25.364-25.338h62.227Zm-41.729-41.717a11.264,11.264,0,0,0-2.189,12.805l-16.111,16.106v-46.456h52.525v51.011H655.609l15.361-15.357a11.251,11.251,0,0,0,12.807-18.109l-.014-.013A11.274,11.274,0,0,0,667.853,1227.08Zm-72.273,93.478,51.775-51.761h51.608l-52.331,51.761Z" fill="#fff"/>
      <path d="M739.742,1282.127h62.227l12.185-12.181L862,1222.115V1154.6l-67.56-.027-22.484,22.5v62.242l-7.5,7.5v-62.236l-17.825,17.836-12.189,12.2v62.209l-38.269,38.325,10.515.005Zm62.227-119.274h52.525v51.01H808.025l15.361-15.356a11.256,11.256,0,1,0-5.306-5.305l-16.111,16.107Zm-18.924,75.984,16.726-16.722h51.608l-42.761,42.3-9.57,9.466H748Z" fill="#fff"/>
      <path d="M1256.012,481.552l-17.825,17.836-12.19,12.2v62.21l-38.268,38.325,10.514,0L1231.3,579.1h62.227l12.185-12.181,47.844-47.831V451.572L1286,451.546l-22.484,22.5v62.243l-7.5,7.5V481.552Zm37.518-21.728h52.526v51.01h-46.47l15.362-15.356a11.256,11.256,0,1,0-5.306-5.305L1293.53,506.28Zm-18.924,75.984,16.726-16.722h51.609l-42.762,42.295-9.57,9.465h-51.052Z" fill="#fff"/>
      <path d="M1247.826,412.679v-66.84l-67.56-.027-22.484,22.5v62.242l-7.5,7.5V375.818l-17.825,17.836-12.189,12.2V468.06l-38.269,38.326,10.515,0,33.06-33.025H1187.8l12.184-12.182,47.845-47.831Zm-53.38,42.968-9.57,9.466h-51.053l35.049-35.039,16.727-16.722h51.608Zm45.876-50.546h-46.469l15.361-15.357a11.256,11.256,0,1,0-5.306-5.305L1187.8,400.546V354.09h52.525Z" fill="#fff"/>
      <polygon points="1345.39 565.439 1350.659 565.441 1354.147 561.957 1354.147 556.682 1354.147 551.414 1340.145 565.437 1345.39 565.439" fill="#fff"/>
      <polygon points="1310.198 321.627 1310.198 383.87 1302.694 391.372 1302.694 329.136 1272.68 359.168 1272.68 421.378 1234.411 459.703 1244.926 459.708 1277.986 426.682 1280.183 426.682 1340.213 426.682 1354.147 412.752 1354.147 401.759 1337.292 418.43 1286.24 418.43 1338.015 366.67 1354.147 366.67 1354.147 358.418 1346.269 358.418 1354.147 350.542 1354.147 339.934 1340.213 353.864 1340.213 307.408 1354.147 307.408 1354.147 299.138 1332.682 299.13 1310.198 321.627" fill="#fff"/>
      <path d="M1294.508,260.263v-66.84h-.036l-67.524-.027-22.484,22.5v62.242l-7.5,7.5V223.4l-30.015,30.033v62.209l-38.269,38.326,5.246,0,5.269,0,33.06-33.026h62.227l60.029-60.012Zm-62.95,52.434h-51.052l51.775-51.761h51.608ZM1287,252.685h-46.469l15.361-15.357a11.251,11.251,0,0,0,12.808-18.109l-.015-.013a11.251,11.251,0,0,0-18.1,12.817l-16.111,16.107V201.674H1287Z" fill="#fff"/>
      <polygon points="1349.377 212.381 1349.377 176.72 1331.551 194.556 1319.362 206.752 1319.362 268.962 1281.094 307.287 1291.608 307.292 1324.668 274.266 1326.866 274.266 1354.147 274.266 1354.147 266.014 1332.922 266.014 1354.147 244.796 1354.147 234.187 1349.377 238.956 1349.377 212.381" fill="#fff"/>
      <path d="M1154.461,717.511v-66.84l-67.559-.027-22.485,22.5v62.243l-7.5,7.5V680.65l-17.826,17.836-12.189,12.2v62.209l-38.268,38.326,10.514,0,33.06-33.025h62.227l12.185-12.182,47.844-47.831Zm-53.38,42.968-9.57,9.466h-51.052l35.049-35.039,16.726-16.722h51.608Zm45.876-50.546h-46.469l15.361-15.357a11.256,11.256,0,1,0-5.306-5.3l-16.111,16.107V658.922h52.525Z" fill="#fff"/>
      <path d="M951.18,574.917l-17.826,17.836-12.189,12.2v62.209L882.9,705.484l10.514,0,33.06-33.025H988.7l12.185-12.182,47.844-47.83V544.937l-67.559-.027-22.484,22.5v62.243l-7.5,7.5V574.917ZM988.7,553.189h52.526V604.2h-46.47l15.361-15.357a11.256,11.256,0,1,0-5.305-5.3L988.7,599.645Zm-18.924,75.983L986.5,612.451h51.609l-42.762,42.295-9.57,9.465H934.725Z" fill="#fff"/>
      <path d="M1073.581,558.267v62.209L1035.313,658.8l10.514,0,33.06-33.025h62.227l60.029-60.013V498.255l-67.559-.027-22.484,22.5v62.243l-7.5,7.5V528.234Zm67.533-51.761h52.526v51.011h-46.47l15.361-15.357a11.257,11.257,0,1,0-5.3-5.3l-16.112,16.108Zm-2.2,59.262h51.609l-52.332,51.761h-51.052Z" fill="#fff"/>
      <path d="M1095.41,459.362V392.521h-.036l-67.524-.027-22.484,22.5v62.243l-7.5,7.5V422.5l-30.014,30.033v62.209l-38.269,38.326,5.245,0,5.27,0,33.06-33.025h62.227l60.029-60.012ZM1032.46,511.8H981.407l51.776-51.76h51.608Zm55.446-60.012h-46.469l15.361-15.357a11.251,11.251,0,0,0,12.807-18.109l-.014-.013a11.252,11.252,0,0,0-18.1,12.818l-16.111,16.107V400.773h52.525Z" fill="#fff"/>
      <path d="M879.789,824.879h62.227l60.029-60.012V697.353l-67.559-.027L912,719.824v62.243l-7.5,7.5V727.333l-30.015,30.032v62.21L836.214,857.9l10.515,0Zm62.227-119.274h52.525v51.01H948.072l15.361-15.357a11.255,11.255,0,1,0-5.306-5.3l-16.111,16.107Zm-2.2,59.262h51.608L939.1,816.627H888.043Z" fill="#fff"/>
      <path d="M680.69,1023.977h62.227l60.03-60.012V896.451l-67.56-.026-22.484,22.5v62.242l-7.5,7.5V926.431l-30.014,30.033v62.209L637.116,1057l10.514,0ZM742.917,904.7h52.526v51.011H748.974l15.361-15.357a11.256,11.256,0,1,0-5.306-5.3l-16.112,16.107Zm-2.2,59.262h51.609L740,1015.726H688.944Z" fill="#fff"/>
      <path d="M541.9,951.269l33.06-33.025h62.227l60.029-60.012V790.718h-.036l-67.524-.027-22.484,22.5v62.243l-7.5,7.5V820.7L569.651,850.73v62.209l-38.269,38.326,5.246,0Zm92.366-41.277H583.211l51.775-51.76h51.608Zm2.921-111.023h52.525V849.98H643.24L658.6,834.623a11.251,11.251,0,0,0,12.807-18.109l-.014-.013a11.252,11.252,0,0,0-18.1,12.818l-16.111,16.107Z" fill="#fff"/>
      <path d="M833.106,977.3h62.227l12.185-12.181,47.845-47.831V849.769l-67.56-.027-22.484,22.5v62.243l-7.5,7.5V879.749L839.99,897.585l-12.189,12.2v62.21l-38.269,38.325,10.514,0Zm62.227-119.274h52.526v51.01H901.39l15.361-15.357a11.255,11.255,0,1,0-5.306-5.3l-16.112,16.107ZM876.409,934l16.726-16.721h51.609l-42.761,42.295-9.57,9.465H841.361Z" fill="#fff"/>
      <path d="M727.373,871.561H789.6l12.185-12.181,47.844-47.831V744.035l-67.56-.026-22.484,22.5v62.242l-7.5,7.5V774.015l-17.826,17.836-12.189,12.2v62.209L683.8,904.583l10.515,0ZM789.6,752.287h52.525V803.3H795.656l15.361-15.357a11.256,11.256,0,1,0-5.306-5.305L789.6,798.743Zm-18.924,75.984L787.4,811.549H839.01l-42.761,42.3-9.57,9.466H735.627Z" fill="#fff"/>
      <path d="M557.166,1314.806v-66.84l-67.56-.027-22.484,22.5v62.243l-7.5,7.5v-62.235l-17.825,17.835-12.189,12.2v46.169h26.657l21.952-21.946,16.726-16.721h51.608l-39.094,38.667h11.035l38.678-38.667Zm-7.5-7.578H503.193l15.361-15.357a11.256,11.256,0,1,0-5.306-5.3l-16.112,16.107v-46.456h52.526Z" fill="#fff"/>
      <path d="M481.592,1223.076h62.227l60.029-60.012V1095.55l-67.559-.027-22.485,22.5v62.243l-7.5,7.5V1125.53l-30.015,30.032v62.209L438.018,1256.1l10.514,0ZM543.819,1103.8h52.525v51.01H549.875l15.361-15.357a11.255,11.255,0,1,0-5.306-5.3l-16.111,16.107Zm-2.2,59.262h51.608l-52.331,51.76H489.846Z" fill="#fff"/>
      <path d="M634.008,1176.393h62.227l12.185-12.181,47.844-47.831v-67.514l-67.559-.026-22.485,22.5v62.242l-7.5,7.5v-62.236l-17.826,17.836-12.189,12.2v62.209l-38.268,38.326,10.514,0Zm62.227-119.274H748.76v51.011H702.291l15.361-15.357a11.255,11.255,0,1,0-5.306-5.3l-16.111,16.106ZM677.311,1133.1l16.726-16.722h51.608l-42.761,42.295-9.57,9.466H642.262Z" fill="#fff"/>
      <path d="M528.274,1070.66H590.5l12.185-12.182,47.844-47.83V943.134l-67.559-.027-22.484,22.5v62.243l-7.5,7.5V973.113l-17.825,17.836-12.189,12.2v62.209L484.7,1103.681l10.514,0ZM590.5,951.385h52.526V1002.4h-46.47l15.362-15.357a11.256,11.256,0,1,0-5.306-5.3L590.5,997.842Zm-18.924,75.984,16.726-16.721h51.609l-42.761,42.295-9.571,9.465H536.528Z" fill="#fff"/>
      <polygon points="171.939 1354.147 192.304 1354.147 192.304 1349.582 244.83 1349.582 244.83 1354.147 252.334 1354.147 252.334 1341.331 184.774 1341.304 171.939 1354.147" fill="#fff"/>
      <polygon points="307.202 1354.147 307.202 1324.628 277.701 1354.147 307.202 1354.147" fill="#fff"/>
      <path d="M314.706,1317.119v37.028H404.75v-59.5l-67.56-.026ZM344.72,1302.9h52.526v51.01H350.777l15.361-15.357a11.255,11.255,0,1,0-5.306-5.3l-16.112,16.107Z" fill="#fff"/>
      <path d="M178.958,1316.441h60.029l60.029-60.013v-67.513h-.036l-67.523-.027-22.485,22.5v62.243l-7.5,7.5v-62.236l-30.015,30.033v62.209l-38.268,38.326,5.245,0,5.269,0,33.06-33.025Zm57.108-8.252H185.014l51.775-51.761H288.4Zm21.221-93.478a11.265,11.265,0,0,0-2.189,12.8l-16.111,16.107v-46.456h52.525v51.011H245.043L260.4,1232.82a11.251,11.251,0,0,0,12.808-18.109l-.015-.013A11.274,11.274,0,0,0,257.287,1214.711Z" fill="#fff"/>
      <path d="M296.116,1302.783l33.06-33.025H391.4l12.185-12.181,47.844-47.831v-67.514l-67.559-.026-22.485,22.5v62.243l-7.5,7.5v-62.236l-17.826,17.836-12.189,12.2v62.21L285.6,1302.78Zm95.287-152.3h52.525v51.01H397.459l15.361-15.357a11.255,11.255,0,1,0-5.306-5.3L391.4,1196.94Zm-18.924,75.984,16.726-16.722h51.608l-42.761,42.295-9.57,9.466H337.43Z" fill="#fff"/>
      <path d="M1341.19,107.847V41.007l-67.559-.027-22.484,22.5V125.72l-7.5,7.5V70.986l-17.825,17.836-12.189,12.2v62.209l-38.269,38.326,10.514,0,33.06-33.026h62.227l12.185-12.181,47.844-47.831Zm-53.379,42.968-9.571,9.466h-51.052l35.049-35.039,16.727-16.722h51.608Zm45.876-50.546h-46.469l15.361-15.357a11.256,11.256,0,1,0-5.306-5.305l-16.112,16.107V49.258h52.526Z" fill="#fff"/>
      <polygon points="1327.776 154.871 1333.021 154.873 1338.29 154.875 1354.147 139.035 1354.147 133.748 1354.147 128.461 1327.776 154.871" fill="#fff"/>
      <polygon points="1232.557 49.142 1265.617 16.116 1267.814 16.116 1327.844 16.116 1343.965 0 1332.874 0 1324.923 7.865 1273.871 7.865 1281.738 0 1260.311 0 1260.311 10.812 1222.042 49.138 1232.557 49.142" fill="#fff"/>
      <path d="M1142.092,306.946V240.105l-67.56-.027-22.484,22.5v62.243l-7.5,7.5V270.084l-17.826,17.837-12.189,12.2v62.209l-38.269,38.326,10.515,0,33.06-33.025h62.227l12.185-12.182,47.844-47.83Zm-53.38,42.968-9.57,9.465H1028.09l35.049-35.039,16.726-16.721h51.608Zm45.876-50.547h-46.469l15.361-15.357a11.255,11.255,0,1,0-5.306-5.3l-16.111,16.107V248.357h52.525Z" fill="#fff"/>
      <path d="M938.811,164.351l-17.825,17.836-12.19,12.2v62.209l-38.268,38.325,10.514,0L914.1,261.9h62.227l12.185-12.181,47.844-47.831V134.371l-67.559-.027-22.484,22.5v62.242l-7.5,7.5V164.351Zm37.518-21.728h52.526v51.01h-46.47l15.362-15.356a11.256,11.256,0,1,0-5.306-5.3l-16.112,16.107Zm-18.924,75.984,16.726-16.722h51.609l-42.762,42.3-9.57,9.466H922.356Z" fill="#fff"/>
      <path d="M1061.212,147.7V209.91l-38.268,38.326,10.514,0,33.06-33.025h62.227l60.029-60.012V87.689l-67.559-.027-22.484,22.5V172.4l-7.5,7.5V117.668Zm67.533-51.76h52.526v51.01H1134.8l15.361-15.357a11.256,11.256,0,1,0-5.306-5.3L1128.745,142.4Zm-2.2,59.262h51.609l-52.332,51.76h-51.052Z" fill="#fff"/>
      <path d="M1080.141,95.824,1113.2,62.8h62.226l12.186-12.182,47.844-47.83V0h-90.044V19.987l-7.5,7.5V0H1107.9V57.494L1069.626,95.82ZM1156.5,19.508,1173.23,2.787h51.608l-42.761,42.3-9.57,9.465h-51.052Z" fill="#fff"/>
      <path d="M942.994,506.044V439.2l-67.56-.026-22.484,22.5v62.242l-7.5,7.5V469.183l-17.825,17.836-12.189,12.2v62.209L777.163,599.75l10.514,0,33.061-33.026h62.227l12.184-12.181,47.845-47.831Zm-53.38,42.968-9.57,9.466H828.991l35.049-35.039,16.727-16.722h51.608Zm45.876-50.547H889.021l15.361-15.356a11.256,11.256,0,1,0-5.306-5.305l-16.111,16.107V447.455H935.49Z" fill="#fff"/>
      <path d="M739.713,363.449l-17.826,17.836-12.189,12.2v62.209l-38.269,38.326,10.515,0L715,461h62.227l12.185-12.182,47.844-47.831V333.47l-67.56-.027-22.484,22.5v62.243l-7.5,7.5V363.449Zm37.518-21.728h52.525v51.011H783.287l15.361-15.357a11.256,11.256,0,1,0-5.306-5.3l-16.111,16.106Zm-18.924,75.984,16.726-16.722h51.608l-42.761,42.3-9.57,9.466H723.258Z" fill="#fff"/>
      <path d="M862.114,346.8v62.209l-38.269,38.325,10.515,0,33.06-33.026h62.227L989.676,354.3V286.787l-67.56-.026-22.484,22.5V371.5l-7.5,7.5V316.767Zm67.533-51.761h52.525v51.01H935.7l15.361-15.356a11.256,11.256,0,1,0-5.306-5.305L929.647,341.5Zm-2.2,59.262h51.608l-52.331,51.761H875.674Z" fill="#fff"/>
      <path d="M540.614,562.548l-17.825,17.836L510.6,592.58v62.21l-38.269,38.325,10.514,0,33.061-33.025h62.226l12.185-12.182,47.844-47.83V532.568l-67.559-.026-22.484,22.5v62.243l-7.5,7.5V562.548Zm37.518-21.728h52.526v51.01H584.189l15.361-15.357a11.255,11.255,0,1,0-5.306-5.3l-16.112,16.107ZM559.208,616.8l16.727-16.721h51.608l-42.761,42.295-9.57,9.466H524.159Z" fill="#fff"/>
      <path d="M768.749,651.632v62.209l-38.268,38.326,5.245,0,5.269,0,33.06-33.026h62.227l60.029-60.012V591.619h-.036l-67.523-.026-22.484,22.5v62.242l-7.5,7.5V621.6Zm64.612,59.262H782.309l51.775-51.761h51.608Zm2.921-111.023h52.526v51.011h-46.47L857.7,635.525a11.251,11.251,0,0,0,12.808-18.109l-.015-.013a11.251,11.251,0,0,0-18.1,12.817l-16.112,16.107Z" fill="#fff"/>
      <path d="M663.016,545.9v62.209l-38.269,38.326,10.514,0,33.061-33.025h62.226L790.577,553.4V485.886l-67.559-.027-22.484,22.5V570.6l-7.5,7.5V515.865Zm67.532-51.761h52.526v51.011H736.605l15.361-15.357a11.256,11.256,0,1,0-5.306-5.3l-16.112,16.107Zm-2.2,59.262h51.608L727.628,605.16H676.575Z" fill="#fff"/>
      <path d="M436.163,845.535l33.06-33.025H531.45L591.479,752.5V684.984l-67.559-.026-22.485,22.5V769.7l-7.5,7.5V714.964L463.917,745v62.21l-38.268,38.325Zm95.287-152.3h52.525v51.01H537.506l15.361-15.357a11.256,11.256,0,1,0-5.3-5.3L531.45,739.692Zm-2.2,59.262H580.86l-52.331,51.761H477.477Z" fill="#fff"/>
      <path d="M588.579,798.853l33.06-33.025h62.227l12.185-12.182L743.9,705.815V638.3l-67.559-.027-22.484,22.5v62.243l-7.5,7.5V668.281l-17.826,17.836-12.189,12.2v62.209l-38.268,38.326Zm95.287-152.3h52.526v51.011h-46.47l15.361-15.357a11.256,11.256,0,1,0-5.305-5.3L683.866,693.01Zm-18.924,75.984,16.726-16.722h51.608L690.515,748.11l-9.57,9.466H629.893Z" fill="#fff"/>
      <path d="M337.529,1150.365l5.269,0,33.06-33.025h62.227l60.029-60.012V989.816h-.036l-67.523-.026-22.484,22.5v62.243l-7.5,7.5V1019.8l-30.015,30.032v62.21l-38.268,38.326Zm97.635-41.274H384.112l51.775-51.761H487.5Zm2.921-111.023h52.526v51.01h-46.47l15.362-15.357a11.25,11.25,0,0,0,12.807-18.108l-.015-.014a11.251,11.251,0,0,0-18.1,12.818l-16.112,16.107Z" fill="#fff"/>
      <path d="M264.819,1006.3,226.55,1044.63l10.515,0,33.06-33.025h62.227L392.381,951.6V884.083l-67.56-.027-22.484,22.5V968.8l-7.5,7.5V914.062L264.819,944.1Zm67.533-113.97h52.525v51.01H338.408l15.361-15.356a11.256,11.256,0,1,0-5.306-5.305L332.352,938.79Zm-2.2,59.262h51.608l-52.331,51.761H278.379Z" fill="#fff"/>
      <path d="M417.235,959.622l-38.269,38.326,10.515,0,33.06-33.025h62.227l12.185-12.181L544.8,904.914V837.4l-67.56-.026-22.484,22.5v62.243l-7.5,7.5V867.38l-17.826,17.836-12.189,12.2Zm67.533-113.97h52.525v51.01H490.824l15.361-15.357a11.255,11.255,0,1,0-5.306-5.3l-16.111,16.107Zm-18.924,75.983,16.726-16.721h51.608l-42.761,42.295-9.57,9.466H430.8Z" fill="#fff"/>
      <path d="M283.747,892.218l33.06-33.025h62.227l12.185-12.182,47.844-47.831V731.667L371.5,731.64l-22.485,22.5v62.243l-7.5,7.5V761.646L323.69,779.482l-12.189,12.2v62.209l-38.268,38.326Zm95.287-152.3h52.525v51.01H385.09l15.361-15.356a11.257,11.257,0,1,0-5.305-5.3l-16.112,16.107ZM360.11,815.9l16.726-16.722h51.608l-42.761,42.3-9.57,9.466H325.061Z" fill="#fff"/>
      <path d="M146.6,1302.438V1235.6l-67.559-.027-22.485,22.5v62.243l-7.5,7.5v-62.236l-17.826,17.837-12.189,12.2v58.538H33.323l34.324-34.315,16.726-16.721h51.608L93.22,1345.406l-8.838,8.741H95.549l3.207-3.206,47.844-47.83Zm-7.5-7.579H92.627l15.361-15.357a11.256,11.256,0,1,0-5.306-5.3l-16.111,16.107v-46.457H139.1Z" fill="#fff"/>
      <polygon points="40.866 1196.704 40.866 1129.863 0 1129.847 0 1138.115 33.363 1138.115 33.363 1189.125 0 1189.125 0 1197.377 30.248 1197.377 0 1227.295 0 1238.232 40.866 1197.377 40.866 1196.704" fill="#fff"/>
      <path d="M7.1,1174.872a11.256,11.256,0,1,0-7.1-19.99v21.14l2.254-2.253A11.291,11.291,0,0,0,7.1,1174.872Z" fill="#fff"/>
      <path d="M65.72,1205.4l-38.268,38.325,10.514,0,33.06-33.025h62.227l60.029-60.012v-67.514l-67.559-.027-22.484,22.5V1167.9l-7.5,7.5V1113.16L65.72,1143.193Zm67.533-113.971h52.526v51.011h-46.47l15.362-15.357a11.256,11.256,0,1,0-5.306-5.3l-16.112,16.107Zm-2.2,59.263h51.609l-52.332,51.76H79.28Z" fill="#fff"/>
      <path d="M87.549,1044.961V977.447h-.036l-67.524-.026L0,997.422v72.854l25.322-25.315H76.93L24.6,1096.721H0v8.252H27.52Zm-53.973-8.252,15.361-15.357a11.25,11.25,0,0,0,12.807-18.108l-.014-.014a11.252,11.252,0,0,0-18.1,12.818L27.52,1032.155V985.7H80.045v51.01Z" fill="#fff"/>
      <path d="M223.442,1164.025h62.227l12.185-12.182,47.844-47.831V1036.5l-67.559-.027-22.484,22.5v62.243l-7.5,7.5v-62.236l-17.825,17.836-12.19,12.2v62.209l-38.268,38.326,10.514,0Zm62.227-119.275H338.2v51.01h-46.47l15.362-15.356a11.256,11.256,0,1,0-5.306-5.305l-16.112,16.107Zm-18.924,75.984,16.726-16.722H335.08l-42.762,42.3-9.57,9.466H231.7Z" fill="#fff"/>
      <path d="M112.4,1052.987l-38.269,38.325,10.515,0,33.06-33.025h62.227l12.185-12.182,47.844-47.83V930.765l-67.56-.027-22.484,22.5v62.243l-7.5,7.5V960.744l-17.825,17.837-12.189,12.2Zm67.533-113.97h52.525v51.01H185.992l15.361-15.357a11.256,11.256,0,1,0-5.306-5.3l-16.111,16.107ZM161.011,1015l16.727-16.721h51.608l-42.761,42.294-9.57,9.466H125.963Z" fill="#fff"/>
      <path d="M840.581,51.109v62.243l-7.5,7.5V58.617L815.252,76.453l-12.189,12.2v62.209l-38.269,38.326,10.515,0,33.06-33.025H870.6l12.186-12.182,47.844-47.831V28.637l-67.56-.026ZM870.6,36.889h52.526V87.9H876.652l15.361-15.357a11.256,11.256,0,1,0-5.306-5.3L870.6,83.345Zm49.411,59.262-42.761,42.3-9.57,9.466H816.623l35.048-35.039L868.4,96.151Z" fill="#fff"/>
      <path d="M922.456,142.5l5.269,0,33.06-33.026h62.226l60.03-60.012V0h-7.5V41.217h-46.469l15.361-15.356a11.251,11.251,0,0,0,12.808-18.109l-.015-.013a11.251,11.251,0,0,0-18.1,12.817l-16.112,16.107V0h-25.59L993,4.427V66.669l-7.5,7.5V11.935L955.479,41.968v62.209L917.21,142.5Zm149.966-93.035-52.331,51.76H969.039l51.775-51.76Z" fill="#fff"/>
      <polygon points="821.991 36.773 855.051 3.748 857.249 3.748 917.278 3.748 921.027 0 848.191 0 811.477 36.769 821.991 36.773" fill="#fff"/>
      <path d="M633.979,257.716l-17.826,17.836-12.189,12.2v62.21L565.7,388.283l10.514,0,33.06-33.025H671.5l12.185-12.182,47.844-47.83V227.736l-67.559-.027-22.484,22.5V312.45l-7.5,7.5V257.716ZM671.5,235.988h52.526V287h-46.47l15.361-15.357a11.256,11.256,0,1,0-5.3-5.3L671.5,282.444Zm-18.924,75.983L669.3,295.25h51.608l-42.761,42.3-9.57,9.465H617.524Z" fill="#fff"/>
      <path d="M528.245,151.982,510.42,169.818l-12.189,12.2v62.209L459.962,282.55l10.515,0,33.06-33.025h62.226l12.185-12.181,47.844-47.831V122l-67.559-.026-22.484,22.5v62.242l-7.5,7.5V151.982Zm37.518-21.728h52.526v51.01H571.82l15.361-15.357a11.255,11.255,0,1,0-5.306-5.3L565.763,176.71Zm-18.924,75.984,16.727-16.722h51.608l-42.761,42.3-9.57,9.466H511.791Z" fill="#fff"/>
      <path d="M756.38,241.066v62.209L718.112,341.6l5.245,0,5.269,0,33.06-33.025h62.227l60.029-60.013V181.054h-.036l-67.523-.027-22.484,22.5v62.243l-7.5,7.5V211.033Zm64.612,59.262H769.94l51.775-51.761h51.608Zm2.921-111.023h52.526v51.011h-46.47l15.362-15.357a11.251,11.251,0,0,0,12.807-18.109l-.015-.013a11.251,11.251,0,0,0-18.1,12.818l-16.112,16.106Z" fill="#fff"/>
      <path d="M650.647,135.332v62.21l-38.269,38.325,10.515,0,33.06-33.025h62.226l60.03-60.012V75.32l-67.56-.027-22.484,22.5v62.243l-7.5,7.5V105.3Zm67.532-51.76h52.526v51.01H724.236L739.6,119.225a11.256,11.256,0,1,0-5.306-5.3l-16.112,16.107Zm-2.2,59.262H767.59l-52.331,51.76H664.207Z" fill="#fff"/>
      <polygon points="669.575 83.455 702.635 50.43 704.833 50.43 764.862 50.43 777.047 38.248 815.306 0 804.584 0 771.511 32.713 761.941 42.178 710.889 42.178 745.938 7.139 753.079 0 738.799 0 734.847 0 734.847 7.618 727.344 15.119 727.344 0 697.329 0 697.329 45.125 659.061 83.451 669.575 83.455" fill="#fff"/>
      <path d="M434.88,456.814,417.055,474.65l-12.189,12.2v62.209L366.6,587.382l10.515,0,33.06-33.025H472.4l12.185-12.181,47.844-47.831V426.834l-67.56-.026-22.484,22.5v62.242l-7.5,7.5V456.814ZM472.4,435.086h52.525V486.1H478.455l15.361-15.356a11.256,11.256,0,1,0-5.306-5.305L472.4,481.542ZM453.475,511.07,470.2,494.348h51.608l-42.761,42.3-9.57,9.466H418.426Z" fill="#fff"/>
      <path d="M557.282,440.164v62.21L519.013,540.7l5.246,0,5.269,0,33.06-33.025h62.227l60.029-60.012V380.152h-.036l-67.524-.027-22.484,22.5v62.243l-7.5,7.5V410.132Zm64.612,59.262H570.842l51.775-51.76h51.608ZM624.815,388.4H677.34v51.01H630.871l15.361-15.357a11.251,11.251,0,0,0,12.808-18.109l-.015-.013a11.252,11.252,0,0,0-18.1,12.818L624.815,434.86Z" fill="#fff"/>
      <path d="M451.548,334.431V396.64L413.28,434.966l10.514,0,33.06-33.025h62.227l60.029-60.012V274.418l-67.559-.026-22.484,22.5v62.242l-7.5,7.5V304.4Zm67.533-51.761h52.526v51.01h-46.47L540.5,318.324a11.257,11.257,0,1,0-5.305-5.305l-16.112,16.107Zm-2.2,59.262h51.608L516.16,393.693H465.108Z" fill="#fff"/>
      <path d="M358.184,701.472,319.915,739.8l5.245,0,5.269,0,33.061-33.026h62.226l60.029-60.012V579.25h-.035l-67.524-.026-22.484,22.5v62.242l-7.5,7.5V609.23l-30.014,30.033Zm64.611-2.947H371.743l51.776-51.761h51.608ZM425.716,587.5h52.526v51.01h-46.47l15.362-15.356a11.251,11.251,0,0,0,12.807-18.109l-.014-.013a11.251,11.251,0,0,0-18.1,12.817l-16.112,16.107Z" fill="#fff"/>
      <path d="M252.45,595.738l-38.269,38.326,10.515,0,33.06-33.025h62.227l60.029-60.012V473.517l-67.56-.027-22.484,22.5v62.243l-7.5,7.5V503.5L252.45,533.529Zm67.533-113.97h52.525v51.011H326.039L341.4,517.422a11.256,11.256,0,1,0-5.306-5.3l-16.111,16.107Zm-2.2,59.263h51.608l-52.331,51.76H266.01Z" fill="#fff"/>
      <path d="M271.378,481.652l33.06-33.025h62.227l12.185-12.182,47.844-47.83V321.1l-67.559-.027-22.485,22.5v62.243l-7.5,7.5V351.08l-17.826,17.837-12.189,12.2v62.209l-38.268,38.326Zm95.287-152.3H419.19v51.011H372.721l15.361-15.357a11.255,11.255,0,1,0-5.306-5.3l-16.111,16.107Zm-18.924,75.984,16.726-16.721h51.608l-42.761,42.294-9.57,9.466H312.692Z" fill="#fff"/>
      <path d="M2.693,745.094A11.209,11.209,0,0,0,0,743.106V763a11.236,11.236,0,0,0,2.693-1.988A11.268,11.268,0,0,0,2.693,745.094Z" fill="#fff"/>
      <polygon points="28.497 786.138 28.497 719.298 0 719.286 0 727.549 20.994 727.549 20.994 778.56 0 778.56 0 786.811 17.879 786.811 0 804.495 0 815.301 28.497 786.811 28.497 786.138" fill="#fff"/>
      <path d="M126.062,938.9l5.269,0,33.06-33.025h62.227l60.029-60.012V778.349h-.036l-67.523-.027L196.6,800.82v62.243l-7.5,7.5V808.328l-30.015,30.033v62.21L120.817,938.9ZM223.7,897.623H172.645l51.775-51.76h51.608ZM226.618,786.6h52.525v51.01H232.674l15.361-15.357a11.251,11.251,0,0,0,12.808-18.109l-.015-.013a11.252,11.252,0,0,0-18.1,12.818l-16.111,16.107Z" fill="#fff"/>
      <path d="M53.352,794.837,15.083,833.162l10.514,0,33.06-33.026h62.227l60.029-60.012V672.615l-67.559-.026-22.484,22.5v62.243l-7.5,7.5V702.6L53.352,732.627Zm67.532-113.97H173.41v51.01H126.94L142.3,716.521a11.256,11.256,0,1,0-5.306-5.3l-16.112,16.107Zm-2.2,59.262H170.3l-52.332,51.76H66.911Z" fill="#fff"/>
      <path d="M75.18,634.4V566.882h-.036L7.62,566.855,0,574.48v72.864L12.953,634.4H64.561L12.23,686.156H0v8.251H15.151Zm-53.973-8.251,15.361-15.357a11.251,11.251,0,0,0,12.807-18.109l-.014-.013a11.251,11.251,0,0,0-18.1,12.817L15.151,621.589V575.133H67.676v51.011Z" fill="#fff"/>
      <path d="M205.768,748.155,167.5,786.48l10.514,0,33.06-33.025H273.3l12.185-12.182,47.844-47.83V625.933l-67.559-.027-22.484,22.5v62.243l-7.5,7.5V655.912l-17.825,17.837-12.189,12.2ZM273.3,634.185h52.526V685.2h-46.47l15.362-15.357a11.256,11.256,0,1,0-5.306-5.3L273.3,680.641Zm-18.924,75.983L271.1,693.447h51.608l-42.762,42.294-9.57,9.466H219.327Z" fill="#fff"/>
      <path d="M100.034,642.421,61.765,680.746l10.515,0,33.06-33.025h62.227l12.185-12.181L227.6,587.713V520.2l-67.56-.026-22.484,22.5v62.243l-7.5,7.5V550.178l-17.825,17.837-12.189,12.2Zm67.533-113.97h52.525v51.01H173.623L188.984,564.1a11.255,11.255,0,1,0-5.306-5.3l-16.111,16.107Zm-18.924,75.983,16.726-16.721h51.608l-42.761,42.3-9.57,9.465H113.594Z" fill="#fff"/>
      <path d="M14.173,952.557H74.2l12.185-12.181,47.844-47.831V825.031l-67.559-.026L44.187,847.5v62.243l-7.5,7.5V855.011L18.858,872.847l-12.189,12.2v62.21L0,953.932V964.52l11.975-11.963ZM74.2,833.283h52.525v51.01H80.258l15.361-15.356a11.256,11.256,0,1,0-5.306-5.305L74.2,879.739ZM55.278,909.267,72,892.545h51.608l-42.761,42.3-9.57,9.465H20.229Z" fill="#fff"/>
      <path d="M511.89,130.135l5.269,0,33.06-33.025h62.227L672.475,37.1V0h-7.5V28.848H618.5l15.361-15.357a11.278,11.278,0,0,0,4.845,1.1A11.242,11.242,0,0,0,649.453,0H627.966a11.329,11.329,0,0,0,.591,8.187L612.446,24.294V0H582.431V54.3l-7.5,7.5V0h-.434L544.913,29.6v62.21l-38.268,38.326ZM661.856,37.1,609.525,88.861H558.473L610.248,37.1Z" fill="#fff"/>
      <polygon points="435.855 0 425.274 0 400.911 24.4 411.425 24.404 435.855 0" fill="#fff"/>
      <path d="M223.413,245.346l-17.825,17.837-12.189,12.2v62.21L155.13,375.914l10.515,0L198.7,342.893h62.227l12.185-12.182,47.844-47.83V215.367l-67.559-.026-22.484,22.5v62.243l-7.5,7.5V245.346Zm37.518-21.727h52.526v51.01H266.988l15.361-15.357a11.255,11.255,0,1,0-5.306-5.3l-16.112,16.107ZM242.007,299.6l16.727-16.721h51.608l-42.761,42.3-9.571,9.465H206.958Z" fill="#fff"/>
      <path d="M117.679,139.613,99.854,157.449l-12.189,12.2v62.209L49.4,270.181l10.515,0,33.06-33.026H155.2l12.185-12.181,47.844-47.831V109.634l-67.56-.027-22.484,22.5v62.242l-7.5,7.5V139.613ZM155.2,117.885h52.525V168.9H161.254l15.361-15.357a11.256,11.256,0,1,0-5.306-5.3L155.2,164.341Zm-18.924,75.984L153,177.147h51.608l-42.761,42.3-9.57,9.466H101.225Z" fill="#fff"/>
      <path d="M345.815,228.7v62.209l-38.269,38.326,5.246,0,5.269,0,33.059-33.025h62.227L473.376,236.2V168.685h-.035l-67.524-.027-22.484,22.5V253.4l-7.5,7.5V198.664Zm64.612,59.262H359.375L411.15,236.2h51.608Zm2.92-111.023h52.526v51.011H419.4l15.361-15.357a11.251,11.251,0,0,0,12.807-18.109l-.015-.013a11.251,11.251,0,0,0-18.1,12.818l-16.112,16.107Z" fill="#fff"/>
      <path d="M240.081,122.963v62.21L201.812,223.5l10.515,0,33.06-33.025h62.227l60.029-60.012V62.951l-67.56-.027L277.6,85.422v62.243l-7.5,7.5V92.93ZM307.614,71.2h52.525v51.01H313.67l15.361-15.357a11.255,11.255,0,1,0-5.306-5.3l-16.111,16.107Zm-2.2,59.262h51.608l-52.331,51.76H253.641Z" fill="#fff"/>
      <path d="M364.743,176.82l33.06-33.025H460.03l12.185-12.182,47.844-47.831V16.269L452.5,16.242l-22.485,22.5v62.243l-7.5,7.5V46.248L404.686,64.084,392.5,76.281V138.49l-38.268,38.326ZM460.03,24.52h52.525V75.531H466.086l15.361-15.357a11.256,11.256,0,1,0-5.306-5.3L460.03,70.977ZM441.106,100.5l16.726-16.722H509.44l-42.761,42.3-9.57,9.466H406.057Z" fill="#fff"/>
      <polygon points="259.009 71.086 292.069 38.061 294.267 38.061 354.296 38.061 366.481 25.879 392.368 0 381.513 0 360.945 20.344 351.375 29.809 300.323 29.809 330.141 0 319.529 0 316.778 2.75 316.778 0 286.763 0 286.763 32.757 248.495 71.082 259.009 71.086" fill="#fff"/>
      <polygon points="16.128 375.573 16.128 308.732 0 308.725 0 316.984 8.625 316.984 8.625 367.994 0 367.994 0 376.246 5.51 376.246 0 381.695 0 392.369 16.128 376.246 16.128 375.573" fill="#fff"/>
      <path d="M113.693,528.332l5.269,0,33.06-33.025h62.227L274.278,435.3V367.783h-.036l-67.523-.026-22.485,22.5V452.5l-7.5,7.5V397.762L146.716,427.8v62.21L108.448,528.33Zm97.635-41.275H160.276l51.775-51.76h51.608Zm2.921-111.022h52.525v51.01H220.305l15.361-15.357a11.251,11.251,0,0,0,12.808-18.108l-.015-.014a11.252,11.252,0,0,0-18.1,12.818l-16.111,16.107Z" fill="#fff"/>
      <path d="M40.983,384.271,2.714,422.6l10.514,0,33.06-33.026h62.227l60.029-60.012V262.05l-67.559-.027L78.5,284.521v62.242l-7.5,7.5V292.029L40.983,322.062ZM108.515,270.3h52.526v51.011H114.572l15.361-15.357a11.256,11.256,0,1,0-5.306-5.305l-16.112,16.107Zm-2.2,59.262h51.608l-52.332,51.761H54.542Z" fill="#fff"/>
      <path d="M62.811,223.83V156.316h-.036L0,156.291v68.122l.584-.583H52.192L0,275.452v8.39H2.782ZM8.838,215.578,24.2,200.221a11.251,11.251,0,0,0,12.808-18.109l-.015-.013a11.252,11.252,0,0,0-18.1,12.818L2.782,211.024V164.567H55.307v51.011Z" fill="#fff"/>
      <path d="M61.833,541.991,74.018,529.81l47.844-47.831V414.466L54.3,414.439l-22.485,22.5v62.242l-7.5,7.5V444.445L6.489,462.281,0,468.774v73.217H61.833Zm0-119.274h52.525v51.011H67.889L83.25,458.371a11.256,11.256,0,1,0-5.306-5.305L61.833,469.173ZM42.909,498.7l16.726-16.722h51.608l-42.761,42.3-9.57,9.466H7.86Z" fill="#fff"/>
      <path d="M101.324,117.767l5.269,0,33.06-33.026H201.88l60.029-60.012V0h-7.5V16.479h-46.47L223.3,1.123a11.291,11.291,0,0,0,4.845,1.1A11.235,11.235,0,0,0,234.851,0H213.809L201.88,11.925V0H171.865V41.931l-7.5,7.5V0H151.567l-17.22,17.23V79.439L96.079,117.765ZM251.291,24.731,198.959,76.492H147.907l51.775-51.761Z" fill="#fff"/>
      <polygon points="12.907 0 2.358 0 0 2.362 0 12.035 0.859 12.035 12.907 0" fill="#fff"/>
      <path d="M61.649,119.244l47.844-47.83V3.9L41.934,3.873l-22.485,22.5V88.614l-7.5,7.5V33.879L0,45.832v72.834L30.54,88.135,47.266,71.414H98.874L56.113,113.708l-9.57,9.466H0v8.252H49.464ZM55.52,63.162,70.881,47.805a11.255,11.255,0,1,0-5.306-5.3L49.464,58.608V12.151H101.99V63.162Z" fill="#fff"/>
    </g>
  </g>
</svg>
