<svg width="536" height="523" viewBox="0 0 536 523" fill="none" xmlns="http://www.w3.org/2000/svg">
<g filter="url(#filter0_d_10_1282)">
<path d="M-27.2049 494.513L-27.1469 498.439C-26.5579 526.118 -11.5529 551.47 12.4211 565.296C36.3951 579.121 65.8541 579.409 90.1041 566.056L93.2271 564.302L95.0681 567.265C109.602 589.691 134.474 603.26 161.199 603.342C187.923 603.424 212.889 590.008 227.577 567.671L229.102 565.348L231.783 566.096C267.006 575.767 304.28 560.061 321.978 528.09C339.677 496.119 333.199 456.193 306.305 431.477L303.993 429.367L306.008 425.715C319.396 401.366 319.042 371.783 305.076 347.772C291.11 323.761 265.576 308.838 237.802 308.453L234.329 308.449L234.147 304.872C232.513 277.236 216.562 252.469 192.082 239.559C167.603 226.649 138.154 227.474 114.425 241.734L111.087 243.752L109.156 240.322C95.0861 215.305 68.5741 199.876 39.8731 200.001C11.1721 200.126 -15.2179 215.786 -29.0879 240.924L-31.1029 244.576L-34.1209 243.746C-69.3729 234.179 -106.6 249.996 -124.203 282.02C-141.807 314.043 -135.211 353.95 -108.243 378.586L-106.181 380.454L-107.333 382.983C-118.652 408.12 -116.084 437.333 -100.552 460.098C-85.0199 482.863 -58.7619 495.9 -31.2369 494.514L-27.2049 494.513Z" fill="url(#paint0_linear_10_1282)" fill-opacity="0.5" shape-rendering="crispEdges"/>
</g>
<defs>
<filter id="filter0_d_10_1282" x="-338" y="0" width="873.889" height="811.343" filterUnits="userSpaceOnUse" color-interpolation-filters="sRGB">
<feFlood flood-opacity="0" result="BackgroundImageFix"/>
<feColorMatrix in="SourceAlpha" type="matrix" values="0 0 0 0 0 0 0 0 0 0 0 0 0 0 0 0 0 0 127 0" result="hardAlpha"/>
<feOffset dy="4"/>
<feGaussianBlur stdDeviation="102"/>
<feComposite in2="hardAlpha" operator="out"/>
<feColorMatrix type="matrix" values="0 0 0 0 1 0 0 0 0 0.309804 0 0 0 0 0.6 0 0 0 0.4 0"/>
<feBlend mode="normal" in2="BackgroundImageFix" result="effect1_dropShadow_10_1282"/>
<feBlend mode="normal" in="SourceGraphic" in2="effect1_dropShadow_10_1282" result="shape"/>
</filter>
<linearGradient id="paint0_linear_10_1282" x1="254.354" y1="285.671" x2="51.3541" y2="509.671" gradientUnits="userSpaceOnUse">
<stop stop-color="#FF4F99"/>
<stop offset="1" stop-color="#FF4F99" stop-opacity="0"/>
</linearGradient>
</defs>
</svg>
