<svg width="399" height="422" viewBox="0 0 399 422" fill="none" xmlns="http://www.w3.org/2000/svg">
<g opacity="0.3" filter="url(#filter0_d_10_1295)">
<path d="M221.793 74.3359C220.649 89.7605 222.656 105.257 227.693 119.881C232.73 134.504 240.691 147.95 251.092 159.398C245.373 178.696 254.15 199.922 272.837 209.034C291.524 218.146 313.653 211.99 325.336 195.6C340.761 196.748 356.258 194.742 370.882 189.705C385.506 184.668 398.952 176.705 410.398 166.302C429.696 172.02 450.922 163.243 460.034 144.556C469.146 125.87 462.99 103.741 446.6 92.0577C447.745 76.633 445.737 61.1368 440.7 46.513C435.663 31.8891 427.702 18.4436 417.302 6.99546C423.02 -12.3025 414.243 -33.5285 395.556 -42.6404C376.869 -51.7523 354.741 -45.5962 343.058 -29.2067C327.633 -30.3512 312.137 -28.3438 297.513 -23.3067C282.889 -18.2697 269.444 -10.3085 257.995 0.0919307C238.697 -5.62652 217.471 3.15037 208.359 21.8372C199.248 40.524 205.404 62.6527 221.793 74.3359ZM285.109 183.867C281.772 182.239 279.217 179.353 278.008 175.842C276.799 172.331 277.034 168.484 278.661 165.147C279.029 164.392 279.626 163.904 280.114 163.254C280.884 162.126 281.812 161.115 282.87 160.252C283.212 159.999 283.599 159.844 283.972 159.622C284.998 158.938 286.105 158.384 287.268 157.973C287.998 157.753 288.781 157.745 289.544 157.65C290.444 157.528 291.331 157.307 292.252 157.366C293.988 157.481 295.72 157.889 297.381 158.699C299.042 159.509 300.431 160.622 301.589 161.919C302.21 162.596 302.581 163.431 303.034 164.228C303.428 164.888 303.904 165.509 304.181 166.22C304.573 167.389 304.819 168.602 304.911 169.832C304.966 170.263 305.083 170.663 305.093 171.089C305.063 172.453 304.838 173.807 304.426 175.109C304.214 175.893 304.197 176.664 303.829 177.419C302.201 180.756 299.315 183.31 295.804 184.52C292.294 185.729 288.446 185.494 285.109 183.867ZM416.147 138.732C415.392 138.364 414.904 137.768 414.254 137.28C413.112 136.458 412.064 135.573 411.252 134.523C410.998 134.181 410.844 133.795 410.622 133.421C409.966 132.37 409.342 131.286 408.973 130.125C408.753 129.395 408.745 128.613 408.65 127.85C408.528 126.949 408.307 126.062 408.366 125.141C408.481 123.406 408.889 121.674 409.699 120.013C410.509 118.351 411.622 116.963 412.919 115.804C413.596 115.184 414.431 114.812 415.228 114.36C415.888 113.965 416.509 113.489 417.22 113.213C418.362 112.788 419.6 112.613 420.832 112.482C421.263 112.428 421.663 112.311 422.088 112.3C423.453 112.331 424.807 112.555 426.109 112.968C426.893 113.179 427.664 113.197 428.419 113.565C431.756 115.192 434.31 118.079 435.52 121.589C436.729 125.1 436.494 128.947 434.866 132.284C433.239 135.622 430.353 138.176 426.842 139.385C423.331 140.594 419.484 140.36 416.147 138.732ZM383.284 -17.473C386.622 -15.8456 389.176 -12.9591 390.385 -9.44854C391.594 -5.93792 391.359 -2.09072 389.732 1.24669C389.364 2.00171 388.768 2.48976 388.28 3.13954C387.458 4.28102 386.573 5.3292 385.523 6.14111C385.181 6.39498 384.795 6.5491 384.421 6.77197C383.37 7.42735 382.286 8.05174 381.125 8.42021C380.395 8.64036 379.612 8.64818 378.85 8.74343C377.949 8.8651 377.062 9.08681 376.141 9.0271C374.406 8.9129 372.674 8.5044 371.012 7.69445C369.351 6.8845 367.963 5.77129 366.804 4.47422C366.184 3.79791 365.812 2.96262 365.36 2.16569C364.965 1.50592 364.489 0.884515 364.213 0.173482C363.788 -0.968112 363.613 -2.2061 363.482 -3.43826C363.428 -3.86976 363.311 -4.26932 363.3 -4.69499C363.293 -6.02233 363.58 -7.37761 363.968 -8.71512C364.179 -9.49989 364.197 -10.2702 364.565 -11.0252C366.192 -14.3626 369.079 -16.9169 372.589 -18.1261C376.1 -19.3353 379.947 -19.1003 383.284 -17.473ZM335.367 -1.71188C335.375 -1.53664 335.464 -1.36846 335.466 -1.21194C336.058 5.46579 338.237 11.9055 341.82 17.5713C342.298 18.3179 342.824 18.9951 343.357 19.7224C344.804 21.7199 346.43 23.5815 348.215 25.2841C348.891 25.9411 349.556 26.6232 350.282 27.2421C352.864 29.389 355.62 31.3402 358.741 32.8619C361.861 34.3836 365.096 35.3532 368.371 36.0469C369.306 36.2379 370.246 36.3538 371.199 36.4758C373.636 36.8287 376.099 36.9613 378.56 36.8721C379.443 36.8507 380.319 36.842 381.201 36.7581C387.872 36.0924 394.287 33.8433 399.913 30.1977C400.056 30.0961 400.244 30.0629 400.368 29.9678C412.661 45.4117 419.273 64.6104 419.099 84.3484C418.924 84.3565 418.755 84.4458 418.599 84.4473C411.921 85.0397 405.482 87.2183 399.816 90.8018C399.069 91.2789 398.373 91.8117 397.665 92.3385C395.675 93.7671 393.838 95.3945 392.109 97.1837C391.446 97.8728 390.764 98.537 390.145 99.2632C388.004 101.864 386.053 104.62 384.532 107.741C383.01 110.861 382.04 114.096 381.347 117.371C381.169 118.303 381.028 119.243 380.924 120.186C380.566 122.627 380.431 125.095 380.521 127.56C380.549 128.461 380.551 129.319 380.635 130.201C381.301 136.872 383.55 143.287 387.196 148.913C387.285 149.05 387.318 149.238 387.407 149.375C371.963 161.667 352.764 168.28 333.026 168.105C333.012 167.943 332.923 167.775 332.927 167.605C332.329 160.912 330.161 154.497 326.573 148.822C326.096 148.076 325.563 147.38 325.036 146.671C323.595 144.676 321.98 142.845 320.178 141.109C319.502 140.452 318.838 139.77 318.112 139.151C315.529 137.004 312.786 135.06 309.653 133.532C305.721 131.679 301.52 130.462 297.207 129.924C294.73 129.573 292.293 129.428 289.833 129.521C288.951 129.543 288.074 129.552 287.192 129.635C280.512 130.303 274.123 132.546 268.48 136.196C268.337 136.297 268.15 136.331 268.025 136.426C255.733 120.982 249.12 101.783 249.295 82.0451C249.47 82.0371 249.638 81.9478 249.794 81.9462C256.472 81.3538 262.912 79.1752 268.578 75.5917C269.324 75.1147 270.02 74.5818 270.729 74.0551C272.724 72.6139 274.555 70.999 276.29 69.1972C276.947 68.5207 277.63 67.8565 278.248 67.1303C280.448 64.5366 282.333 61.6909 283.862 58.6529C285.714 54.7208 286.932 50.5202 287.47 46.2071C287.821 43.7304 287.965 41.2933 287.872 38.8335C287.851 37.9509 287.842 37.0744 287.758 36.1924C287.09 29.512 284.848 23.1228 281.198 17.4801C281.096 17.3371 281.063 17.1496 280.968 17.0253C296.413 4.72138 315.621 -1.89456 335.367 -1.71188ZM252.247 27.6613C253.002 28.0295 253.49 28.6257 254.139 29.1139C255.267 29.8837 256.278 30.812 257.141 31.8703C257.395 32.2121 257.549 32.5988 257.772 32.9723C258.456 33.9982 259.01 35.1053 259.42 36.2681C259.64 36.9984 259.648 37.781 259.743 38.544C259.865 39.4444 260.087 40.3313 260.027 41.2523C259.913 42.9878 259.504 44.72 258.694 46.381C257.884 48.0421 256.771 49.4306 255.474 50.5894C254.798 51.2097 253.963 51.5812 253.166 52.0337C252.506 52.4285 251.884 52.9042 251.173 53.1806C250.032 53.6052 248.794 53.7803 247.562 53.9116C247.13 53.9659 246.731 54.0826 246.305 54.0931C244.978 54.1001 243.622 53.813 242.285 53.4256C241.5 53.2143 240.73 53.1969 239.975 52.8288C236.637 51.2014 234.083 48.3149 232.874 44.8043C231.665 41.2937 231.9 37.4465 233.527 34.1091C235.154 30.7717 238.041 28.2174 241.551 27.0083C245.062 25.7991 248.909 26.034 252.247 27.6613Z" fill="url(#paint0_linear_10_1295)" shape-rendering="crispEdges"/>
</g>
<defs>
<filter id="filter0_d_10_1295" x="0.13623" y="-246.864" width="668.121" height="668.121" filterUnits="userSpaceOnUse" color-interpolation-filters="sRGB">
<feFlood flood-opacity="0" result="BackgroundImageFix"/>
<feColorMatrix in="SourceAlpha" type="matrix" values="0 0 0 0 0 0 0 0 0 0 0 0 0 0 0 0 0 0 127 0" result="hardAlpha"/>
<feOffset dy="4"/>
<feGaussianBlur stdDeviation="102"/>
<feComposite in2="hardAlpha" operator="out"/>
<feColorMatrix type="matrix" values="0 0 0 0 1 0 0 0 0 0.309804 0 0 0 0 0.6 0 0 0 0.4 0"/>
<feBlend mode="normal" in2="BackgroundImageFix" result="effect1_dropShadow_10_1295"/>
<feBlend mode="normal" in="SourceGraphic" in2="effect1_dropShadow_10_1295" result="shape"/>
</filter>
<linearGradient id="paint0_linear_10_1295" x1="214.95" y1="114.641" x2="401.326" y2="55.1743" gradientUnits="userSpaceOnUse">
<stop stop-color="#FF4F99"/>
<stop offset="1" stop-color="#FF4F99" stop-opacity="0"/>
</linearGradient>
</defs>
</svg>
