<svg width="200" height="185" style= "background-color:transparent" xmlns="http://www.w3.org/2000/svg" xmlns:xlink="http://www.w3.org/1999/xlink" overflow="hidden"><defs><clipPath id="clip0"><rect x="802" y="205" width="322" height="185"/></clipPath><clipPath id="clip1"><rect x="803" y="206" width="200" height="185"/></clipPath><clipPath id="clip2"><rect x="803" y="206" width="321" height="291"/></clipPath><clipPath id="clip3"><rect x="803" y="206" width="321" height="291"/></clipPath></defs><g clip-path="url(#clip0)" transform="translate(-802 -205)"><g clip-path="url(#clip1)"><g clip-path="url(#clip2)"><g clip-path="url(#clip3)"><path d="M4897.45 356.274 4827.05 356.274 4826.36 356.616 4826.19 356.616 4825.34 357.299 4824.65 358.154 4799.88 383.272 4799.88 397.797 4799.88 451.793 4789.62 462.046 4789.62 393.525 4756.82 426.333C4755.94 427.324 4755.45 428.599 4755.45 429.921L4755.45 496.392 4722.64 529.029C4720.61 531.004 4720.57 534.249 4722.54 536.277 4722.57 536.311 4722.61 536.344 4722.64 536.376 4724.52 538.359 4727.67 538.435 4729.65 536.547 4729.7 536.491 4729.77 536.435 4729.82 536.376L4762.63 503.568 4828.93 503.568C4830.33 503.575 4831.69 503.022 4832.68 502.031L4901.03 433.681 4901.21 433.681 4901.72 433.168 4901.72 432.826 4901.89 432.826 4901.89 432.484 4901.89 432.143C4901.89 431.972 4902.06 431.972 4902.06 431.801L4902.06 430.776 4902.06 361.4C4902.08 358.759 4900.08 356.539 4897.45 356.274ZM4892.32 424.795 4841.4 424.795 4859 407.195C4860.42 407.725 4861.92 408.013 4863.44 408.049 4866.81 408.099 4870.02 406.735 4872.33 404.29 4874.72 401.953 4876.07 398.75 4876.09 395.405 4876.05 392.062 4874.7 388.867 4872.33 386.519 4869.94 384.234 4866.76 382.951 4863.44 382.931 4860.14 382.984 4856.97 384.264 4854.56 386.519 4851.12 390.051 4850.06 395.251 4851.82 399.847L4834.05 417.618 4834.05 366.527 4892.32 366.527ZM4826.88 493.316 4772.88 493.316 4789.62 476.57 4799.88 466.318 4831.15 435.048 4885.14 435.048Z" fill="#1690A2" fill-rule="nonzero" fill-opacity="1" transform="matrix(1.00281 0 0 1 -3920.35 -150.274)"/></g></g></g></g></svg>