<svg width="213" height="120" viewBox="0 0 213 120" fill="none" xmlns="http://www.w3.org/2000/svg">
<path d="M118.342 4.53913L113.826 9.07826L118.264 13.5391C120.704 15.9913 122.806 18 122.91 18C123.222 18 131.813 9.31304 131.813 9C131.813 8.73913 123.248 0 122.988 0C122.91 0 120.834 2.03478 118.342 4.53913Z" fill="#FCFCFC"/>
<path d="M0.0876006 9.70433C0.0097334 9.88694 -0.0162223 21.4956 0.0097334 35.4782L0.0876006 60.913H7.09565H14.1037L14.1556 51.2608C14.1816 45.9391 14.2075 41.4261 14.2075 41.2174C14.2335 41.0087 14.6228 41.4 15.0641 42.1304C15.5313 42.8348 17.0107 45.1304 18.3345 47.2174C19.6842 49.3043 21.527 52.1739 22.4614 53.6087C23.3699 55.0435 24.8234 57.313 25.68 58.6174L27.2373 61.0435H35.3874C39.8777 61.0435 43.5894 60.9391 43.6673 60.8087C43.7452 60.6782 43.4856 60.1304 43.0963 59.5565C42.7069 59.0087 42.2657 58.3043 42.084 58.0174C41.8244 57.6 39.0472 53.2435 37.5936 51C37.386 50.6608 36.192 48.7565 34.9202 46.7739L32.6361 43.1739L33.2331 42.7826C34.479 41.9739 36.3997 39.9913 37.2043 38.7391C38.9174 36 38.9693 35.6869 39.0991 28.7478L39.2029 22.4348H32.1949H25.1868L25.083 26.9217C25.0051 31.3043 24.9792 31.4608 24.3043 32.5043C21.8385 36.3652 16.5435 36 14.5969 31.8522C14.2335 31.0956 14.1816 29.5304 14.1297 20.2435L14.1037 9.52172L7.14756 9.44346C1.72281 9.39128 0.165468 9.44346 0.0876006 9.70433Z" fill="#FCFCFC"/>
<path d="M139.47 9.70434C139.392 9.88695 139.366 21.4956 139.392 35.4782L139.47 60.913H146.348H153.226L153.304 35.1391L153.356 9.39129H146.478C141.209 9.39129 139.548 9.46955 139.47 9.70434Z" fill="#FCFCFC"/>
<path d="M45.1206 35.687C45.1206 43.9043 45.2244 49.5391 45.4061 50.5043C45.8474 53.087 47.4826 56.087 49.5071 57.9652C52.3623 60.6783 55.3212 61.8261 59.3443 61.8261C63.9126 61.8 66.5341 60.6783 69.8824 57.287L72.2184 54.9652L72.6077 55.5913C72.8154 55.9304 73.7498 56.9739 74.6842 57.913C77.5912 60.8087 80.7838 61.9826 85.2482 61.7739C88.1552 61.6435 90.3614 60.9652 92.4898 59.6087C93.7357 58.7739 96.2015 56.3739 97.084 55.0435C97.5252 54.4174 97.5512 54.3913 97.8367 54.913C97.9924 55.2 98.8749 56.1652 99.7574 57.0261C102.093 59.3478 105.935 61.0435 108.894 61.0435H109.491V41.7391V22.4348L102.483 22.487L95.4747 22.5652L95.3969 35.2174C95.3449 47.6087 95.3449 47.8956 94.7739 48.913C93.6838 50.9478 92.1005 51.913 89.8423 51.913C87.091 51.913 85.0146 50.113 84.5733 47.3217C84.4176 46.487 84.3138 40.5391 84.3138 34.0956V22.4348H77.3057H70.3236L70.2458 35.2696C70.1679 48.8609 70.2198 48.2609 68.9739 50.0087C68.7663 50.3217 68.0655 50.8696 67.4166 51.2348C65.3401 52.4348 62.3812 52.0174 60.7719 50.2956C59.3963 48.8348 59.3963 48.7304 59.3963 35.087V22.4348H52.2584H45.1206V35.687Z" fill="#FCFCFC"/>
<path d="M115.98 36.4435C115.98 51.6261 115.954 51.3652 117.434 54.3913C120.211 60.1043 127.427 63.1565 133.656 61.3043L135.447 60.7565V56.3478C135.447 52.1739 135.421 51.913 134.954 51.913C134.175 51.913 132.514 51.1304 131.709 50.4C131.32 50.0087 130.749 49.2 130.489 48.5739C130.022 47.5043 129.996 46.6174 129.996 34.9304V22.4348H122.988H115.98V36.4435Z" fill="#FCFCFC"/>
<path d="M173.602 82.8261V102H192.809H212.016V82.8261V63.6522H192.809H173.602V82.8261ZM207.811 83.0087L207.733 97.4348L194.833 97.513C187.721 97.5391 181.907 97.4869 181.907 97.3565C181.907 97.2522 183.75 95.3217 186.008 93.0522L190.109 88.9304L191.355 89.2435C193.743 89.8435 196.183 89.0348 197.844 87.0782C200.466 84 199.479 79.0696 195.82 77.1652C195.041 76.7478 194.288 76.5913 192.939 76.5913C190.758 76.5913 189.409 77.1913 188.085 78.7826C186.683 80.4 186.164 83.113 186.839 84.9391C187.125 85.6435 186.969 85.8261 182.764 90.0522C180.376 92.4522 178.326 94.4348 178.222 94.4348C178.092 94.4348 178.014 88.6174 178.014 81.5217V68.6087H192.939H207.863L207.811 83.0087Z" fill="#FCFCFC"/>
<path d="M95.6567 66.9652C95.5529 67.0435 95.475 70.8 95.475 75.313V83.4782L93.6062 82.0435C85.1447 75.5739 72.8157 79.7217 70.6614 89.7913C70.1682 92.113 70.1682 106.487 70.6614 108.574C71.8813 113.661 75.6189 117.522 80.6024 118.8C82.5751 119.322 86.4165 119.348 88.2853 118.852C89.064 118.643 90.3877 118.148 91.2183 117.73C92.8016 116.974 96.3835 113.817 96.6431 112.93C96.8767 112.174 97.3439 112.33 98.0706 113.4C99.9135 116.113 104.56 118.409 108.271 118.435H109.491L109.439 92.6609L109.361 66.913L102.587 66.8348C98.8752 66.8087 95.7606 66.8608 95.6567 66.9652ZM91.6076 89.0869C92.8535 89.5304 94.2292 90.7304 94.904 91.9565C95.5789 93.1565 95.7087 103.513 95.0857 105.496C94.307 107.974 92.4642 109.304 89.8427 109.304C88.0777 109.304 86.702 108.626 85.56 107.191C84.4958 105.887 84.2362 103.722 84.366 97.8261C84.4958 92.3739 84.6775 91.6435 86.3905 90.1826C88.1296 88.7478 89.6869 88.4087 91.6076 89.0869Z" fill="#FCFCFC"/>
<path d="M113.904 92.6087V118.435H120.912H127.92V116.609C127.92 115.565 128.023 114.783 128.179 114.783C128.335 114.783 128.439 114.887 128.439 115.043C128.439 115.357 130.853 117.157 132.202 117.835C134.279 118.904 136.174 119.27 139.21 119.139C142.403 119.035 143.182 118.852 145.44 117.757C147.568 116.739 150.397 113.87 151.487 111.652C152.915 108.73 153.097 107.374 153.097 99.1826C153.097 93.3913 153.019 91.4087 152.681 90C151.046 82.7217 144.324 78.0521 136.926 79.0434C133.812 79.4869 131.865 80.2956 129.529 82.1478C128.802 82.7478 128.127 83.2174 128.049 83.2174C127.998 83.2174 127.894 79.5391 127.868 75.0521L127.79 66.913L120.86 66.8347L113.904 66.7826V92.6087ZM136.148 89.6348C137.601 90.4695 138.458 91.8261 138.795 93.7565C139.184 95.8956 139.133 102.835 138.743 104.791C138.12 107.791 136.277 109.304 133.293 109.304C131.112 109.304 129.555 108.339 128.595 106.383C127.92 105.052 127.92 104.948 127.92 99.0261V93L128.672 91.6695C130.282 88.8521 133.396 88.0174 136.148 89.6348Z" fill="#FCFCFC"/>
<path d="M167.554 69.7826L165.555 71.7391V90.913V110.087H184.841H204.1L206.124 108.052C207.214 106.957 208.123 105.939 208.123 105.835C208.123 105.73 199.531 105.652 189.045 105.652H169.968V86.7391C169.968 76.3304 169.89 67.8261 169.76 67.8261C169.656 67.8261 168.67 68.713 167.554 69.7826Z" fill="#FCFCFC"/>
<path d="M159.508 77.9217L157.509 79.8783L157.561 99.0783L157.639 118.304L176.846 118.226L196.054 118.174L198.052 116.165C199.142 115.07 199.999 114.078 199.921 113.948C199.843 113.843 191.278 113.739 180.843 113.739H161.922V94.9826C161.922 84.6522 161.818 76.1478 161.714 76.0696C161.61 76.0174 160.598 76.8261 159.508 77.9217Z" fill="#FCFCFC"/>
</svg>
