<svg width="39" height="39" viewBox="0 0 39 39" fill="none" xmlns="http://www.w3.org/2000/svg">
<path d="M38.2499 0C38.8393 0.373631 39 0.907389 39 1.60127C39 6.29835 39 10.942 39 15.6391C39 16.1729 38.8393 16.5999 38.4642 16.9735C33.803 21.5638 29.1417 26.2075 24.534 30.8512C23.9982 31.385 23.4625 31.5985 22.7124 31.5985C18.3726 31.5451 14.0328 31.5985 9.69301 31.5985C9.21081 31.5985 8.88935 31.7052 8.5143 32.0789C6.3712 34.2139 4.22809 36.3489 2.08498 38.484C1.49563 39.0711 0.852696 39.1779 0.370497 38.6975C-0.16528 38.2171 -0.111703 37.5232 0.477652 36.9361C2.62076 34.801 4.71029 32.7194 6.8534 30.5843C7.22844 30.2107 7.38917 29.8905 7.38917 29.3567C7.38917 25.0866 7.38917 20.8166 7.38917 16.4931C7.38917 15.6391 7.65706 15.052 8.24641 14.4648C10.3895 12.3832 12.4791 10.2482 14.7293 8.00637C14.7293 12.9169 14.7293 17.6674 14.7293 22.4712C14.7829 22.5246 14.89 22.5246 14.9436 22.578C15.5866 21.9375 16.2295 21.297 16.8724 20.6031C16.9796 20.4429 16.9796 20.1227 16.9796 19.9092C16.9796 15.4256 16.9796 10.942 16.9796 6.45847C16.9796 5.97809 17.0867 5.65784 17.4082 5.33758C19.1763 3.57618 20.9443 1.7614 22.7124 0C27.9094 0 33.0529 0 38.2499 0ZM35.3567 17.0269C35.0888 16.9735 35.0353 16.9201 34.9817 16.9201C31.3384 16.9201 27.6951 16.9201 24.1054 16.9201C23.8911 16.9201 23.5696 17.0803 23.4089 17.2404C19.4977 21.1368 15.533 25.0333 11.6218 28.9297C11.5147 29.0364 11.4075 29.1966 11.3003 29.4101C15.1044 29.4101 18.8012 29.4101 22.4981 29.4101C22.766 29.4101 23.0339 29.1966 23.1946 29.0364C25.2305 27.0615 27.2129 25.0333 29.1953 23.0584C31.2312 21.0301 33.2136 19.0552 35.3567 17.0269ZM24.3733 12.9703C24.4269 13.0237 24.4804 13.0771 24.534 13.0771C25.552 12.0096 26.57 10.942 27.6415 9.9279C28.0166 9.55427 28.1773 9.23402 28.0702 8.70026C28.0166 8.32663 28.0702 7.84625 28.1773 7.47262C28.6059 6.1916 30.1061 5.44433 31.4455 5.87134C32.8386 6.29835 33.6422 7.63274 33.3208 8.96714C32.9993 10.4083 31.7134 11.3157 30.2668 11.1022C29.8382 11.0488 29.5703 11.1022 29.3024 11.4224C28.3916 12.3832 27.4272 13.2906 26.4628 14.2513C26.3557 14.3581 26.2485 14.5182 26.0878 14.6784C29.7311 14.6784 33.3208 14.6784 36.8569 14.6784C36.8569 14.5182 36.9105 14.4115 36.9105 14.3047C36.9105 10.4617 36.9105 6.6186 36.9105 2.77554C36.9105 2.24178 36.6426 2.18841 36.2675 2.18841C32.4635 2.18841 28.7131 2.18841 24.9091 2.18841C24.7483 2.18841 24.5876 2.24178 24.3733 2.24178C24.3733 5.87134 24.3733 9.39414 24.3733 12.9703Z" fill="url(#paint0_linear_7_3172)"/>
<defs>
<linearGradient id="paint0_linear_7_3172" x1="19.5" y1="0" x2="19.5" y2="39" gradientUnits="userSpaceOnUse">
<stop stop-color="#717AFF"/>
<stop offset="1" stop-color="#FF4F99"/>
</linearGradient>
</defs>
</svg>
