<svg width="147" height="93" viewBox="0 0 147 93" fill="none" xmlns="http://www.w3.org/2000/svg">
<path d="M0.0604567 7.52085C0.00671741 7.66238 -0.0111957 16.6591 0.00671741 27.4956L0.0604567 47.2076H4.897H9.73354L9.76936 39.7271C9.7873 35.6028 9.80518 32.1052 9.80518 31.9435C9.82312 31.7817 10.0918 32.085 10.3964 32.6511C10.7188 33.197 11.7398 34.9761 12.6534 36.5935C13.5849 38.2108 14.8567 40.4348 15.5015 41.5467C16.1285 42.6587 17.1316 44.4176 17.7228 45.4285L18.7976 47.3087H24.4223C27.5212 47.3087 30.0828 47.2278 30.1366 47.1267C30.1903 47.0256 30.0112 46.6011 29.7425 46.1563C29.4738 45.7317 29.1693 45.1858 29.0439 44.9635C28.8647 44.64 26.9481 41.2637 25.9449 39.525C25.8016 39.2621 24.9776 37.7863 24.0999 36.2498L22.5235 33.4598L22.9355 33.1565C23.7954 32.5298 25.1209 30.9933 25.6762 30.0228C26.8585 27.9 26.8943 27.6573 26.9839 22.2795L27.0555 17.387H22.219H17.3824L17.3108 20.8643C17.257 24.2608 17.2392 24.3821 16.7734 25.1908C15.0716 28.183 11.4173 27.9 10.0739 24.6855C9.82312 24.0991 9.7873 22.8861 9.75148 15.6887L9.73354 7.37933L4.93282 7.31868C1.18898 7.27824 0.114196 7.31868 0.0604567 7.52085Z" fill="white"/>
<path d="M96.254 7.52087C96.2001 7.66239 96.1822 16.6591 96.2001 27.4956L96.254 47.2076H101.001H105.748L105.801 27.2328L105.837 7.27825H101.09C97.4541 7.27825 96.3078 7.3389 96.254 7.52087Z" fill="white"/>
<path d="M31.1396 27.6574C31.1396 34.0258 31.2112 38.3928 31.3366 39.1408C31.6412 41.1424 32.7697 43.4674 34.1669 44.923C36.1374 47.0257 38.1794 47.9152 40.9559 47.9152C44.1087 47.895 45.9179 47.0257 48.2287 44.3974L49.8409 42.598L50.1095 43.0833C50.2529 43.3461 50.8977 44.1548 51.5426 44.8826C53.5489 47.1267 55.7522 48.0365 58.8333 47.8748C60.8395 47.7737 62.3621 47.248 63.831 46.1967C64.6908 45.5498 66.3926 43.6898 67.0016 42.6587C67.3061 42.1735 67.3241 42.1532 67.5211 42.5576C67.6286 42.78 68.2376 43.528 68.8467 44.1952C70.4586 45.9945 73.1101 47.3087 75.1522 47.3087H75.5642V32.3478V17.387L70.7277 17.4274L65.891 17.488L65.8373 27.2935C65.8014 36.8967 65.8014 37.1191 65.4073 37.9076C64.655 39.4845 63.5623 40.2326 62.0038 40.2326C60.1051 40.2326 58.6721 38.8376 58.3675 36.6743C58.26 36.0274 58.1884 31.4178 58.1884 26.4241V17.387H53.3518H48.5332L48.4795 27.3339C48.4257 37.8672 48.4616 37.4022 47.6017 38.7567C47.4584 38.9993 46.9748 39.4239 46.527 39.707C45.0939 40.637 43.0518 40.3135 41.9412 38.9791C40.9918 37.847 40.9918 37.7661 40.9918 27.1924V17.387H36.0657H31.1396V27.6574Z" fill="white"/>
<path d="M80.0425 28.2437C80.0425 40.0102 80.0246 39.808 81.046 42.1532C82.9625 46.5808 87.9426 48.9463 92.2415 47.5108L93.4775 47.0863V43.6695C93.4775 40.4348 93.4596 40.2326 93.1373 40.2326C92.5996 40.2326 91.4533 39.6261 90.8978 39.06C90.6293 38.7567 90.2352 38.13 90.0558 37.6448C89.7335 36.8158 89.7155 36.1285 89.7155 27.0711V17.387H84.879H80.0425V28.2437Z" fill="white"/>
<path d="M119.81 64.1902V79.05H133.065H146.321V64.1902V49.3305H133.065H119.81V64.1902ZM143.419 64.3317L143.365 75.512L134.462 75.5726C129.554 75.5928 125.541 75.5524 125.541 75.4513C125.541 75.3705 126.813 73.8743 128.372 72.1155L131.202 68.9211L132.062 69.1637C133.71 69.6287 135.394 69.002 136.54 67.4856C138.35 65.1 137.669 61.2789 135.143 59.803C134.606 59.4795 134.086 59.3583 133.155 59.3583C131.65 59.3583 130.719 59.8233 129.805 61.0565C128.838 62.31 128.479 64.4126 128.945 65.8278C129.143 66.3737 129.035 66.5152 126.133 69.7905C124.485 71.6505 123.07 73.187 122.998 73.187C122.909 73.187 122.855 68.6785 122.855 63.1793V53.1718H133.155H143.455L143.419 64.3317Z" fill="white"/>
<path d="M66.0166 51.898C65.945 51.9587 65.8912 54.87 65.8912 58.3676V64.6956L64.6015 63.5837C58.7618 58.5698 50.2531 61.7843 48.7663 69.5883C48.4259 71.3876 48.4259 82.5274 48.7663 84.1448C49.6082 88.0873 52.1877 91.0796 55.627 92.07C56.9884 92.4746 59.6396 92.4947 60.9293 92.1103C61.4667 91.9483 62.3802 91.5647 62.9535 91.2408C64.0462 90.6549 66.5182 88.2082 66.6973 87.5207C66.8586 86.9348 67.181 87.0558 67.6825 87.885C68.9544 89.9876 72.1611 91.767 74.7222 91.7871H75.5642L75.5283 71.8122L75.4745 51.8576L70.7995 51.797C68.2378 51.7767 66.0883 51.8171 66.0166 51.898ZM63.2221 69.0423C64.082 69.3861 65.0314 70.3161 65.4971 71.2663C65.9629 72.1963 66.0525 80.2226 65.6225 81.7594C65.0851 83.6799 63.8133 84.7106 62.0041 84.7106C60.786 84.7106 59.8366 84.1852 59.0484 83.073C58.314 82.0624 58.1348 80.3846 58.2244 75.8152C58.314 71.5898 58.4394 71.0237 59.6216 69.8915C60.8218 68.7795 61.8966 68.5167 63.2221 69.0423Z" fill="white"/>
<path d="M78.6098 71.7717V91.7871H83.4463H88.2828V90.372C88.2828 89.5629 88.3539 88.9568 88.4616 88.9568C88.5692 88.9568 88.641 89.0374 88.641 89.1583C88.641 89.4017 90.307 90.7967 91.238 91.3221C92.6714 92.1506 93.9792 92.4342 96.0745 92.3327C98.2781 92.2521 98.8157 92.1103 100.374 91.2617C101.843 90.4727 103.795 88.2492 104.547 86.5303C105.533 84.2658 105.658 83.2148 105.658 76.8665C105.658 72.3783 105.605 70.8417 105.371 69.75C104.243 64.1093 99.6039 60.4904 94.4982 61.2586C92.3491 61.6024 91.0054 62.2291 89.3933 63.6645C88.8915 64.1295 88.4257 64.4935 88.3718 64.4935C88.3366 64.4935 88.2649 61.6428 88.2469 58.1654L88.1931 51.8576L83.4104 51.7969L78.6098 51.7565V71.7717ZM93.9613 69.467C94.9641 70.1139 95.5555 71.1652 95.7881 72.6613C96.0566 74.3191 96.0214 79.6971 95.7522 81.213C95.3223 83.538 94.0503 84.7106 91.9909 84.7106C90.4857 84.7106 89.4112 83.9627 88.7487 82.4468C88.2828 81.4153 88.2828 81.3347 88.2828 76.7452V72.075L88.8018 71.0439C89.9129 68.8604 92.062 68.2135 93.9613 69.467Z" fill="white"/>
<path d="M115.636 54.0815L114.256 55.5978V70.4576V85.3174H127.566H140.858L142.255 83.7403C143.007 82.8917 143.634 82.1027 143.634 82.0221C143.634 81.9408 137.704 81.8803 130.468 81.8803H117.302V67.2228C117.302 59.1561 117.248 52.5652 117.158 52.5652C117.087 52.5652 116.406 53.2526 115.636 54.0815Z" fill="white"/>
<path d="M110.083 60.3893L108.703 61.9057L108.739 76.7857L108.793 91.6856L122.049 91.6251L135.305 91.5849L136.684 90.0279C137.436 89.1793 138.027 88.4104 137.974 88.3097C137.92 88.2283 132.009 88.1477 124.807 88.1477H111.749V73.6115C111.749 65.6055 111.677 59.0145 111.605 58.9539C111.534 58.9135 110.835 59.5402 110.083 60.3893Z" fill="white"/>
<circle cx="85" cy="7" r="6" fill="white"/>
</svg>
