<svg width="783" height="1945" viewBox="0 0 783 1945" fill="none" xmlns="http://www.w3.org/2000/svg">
<g opacity="0.5" filter="url(#filter0_f_7_2778)">
<g filter="url(#filter1_f_7_2778)">
<ellipse rx="397.996" ry="252.941" transform="matrix(-0.0646665 -0.997907 -0.99527 0.0971504 15.5013 917.214)" fill="#8349FF"/>
</g>
<g filter="url(#filter2_f_7_2778)">
<path d="M-92.5264 826.829C-65.4247 890.724 -70.013 935.743 -62.3404 1007.07C-47.5297 1144.75 -85.838 1228.04 -64.1564 1364.19C-19.9165 1642 248.616 828.006 65.6135 644.778C-49.4281 529.595 -424.319 450.456 -327.93 586.394C-289.436 640.682 -245.1 642.131 -199.402 688.449C-152.24 736.251 -120.184 761.623 -92.5264 826.829Z" fill="url(#paint0_linear_7_2778)"/>
</g>
<g filter="url(#filter3_f_7_2778)">
<path d="M124.741 1166.77C136.094 1261.42 108.347 1330.15 27.4933 1407.65C-136.302 1564.66 -334.449 875.811 -109.144 932.639C32.9146 968.469 110.24 1045.88 124.741 1166.77Z" fill="#0013FF"/>
</g>
<g style="mix-blend-mode:screen" filter="url(#filter4_f_7_2778)">
<ellipse rx="246.238" ry="229.331" transform="matrix(-0.018643 -0.999826 -0.99805 0.0624204 -61.7689 943.5)" fill="#FFB39B"/>
</g>
<g filter="url(#filter5_f_7_2778)">
<path d="M71.9723 1173.14C81.4116 1251.84 58.3409 1308.98 -8.88708 1373.42C-145.079 1503.97 -309.833 931.21 -122.498 978.461C-4.37935 1008.25 59.9152 1072.62 71.9723 1173.14Z" fill="#00FFFF"/>
</g>
</g>
<defs>
<filter id="filter0_f_7_2778" x="-857.609" y="0.758118" width="1640.19" height="1944.22" filterUnits="userSpaceOnUse" color-interpolation-filters="sRGB">
<feFlood flood-opacity="0" result="BackgroundImageFix"/>
<feBlend mode="normal" in="SourceGraphic" in2="BackgroundImageFix" result="shape"/>
<feGaussianBlur stdDeviation="257" result="effect1_foregroundBlur_7_2778"/>
</filter>
<filter id="filter1_f_7_2778" x="-459.545" y="297.308" width="950.094" height="1239.81" filterUnits="userSpaceOnUse" color-interpolation-filters="sRGB">
<feFlood flood-opacity="0" result="BackgroundImageFix"/>
<feBlend mode="normal" in="SourceGraphic" in2="BackgroundImageFix" result="shape"/>
<feGaussianBlur stdDeviation="110.985" result="effect1_foregroundBlur_7_2778"/>
</filter>
<filter id="filter2_f_7_2778" x="-528.585" y="329.783" width="842.324" height="1276.62" filterUnits="userSpaceOnUse" color-interpolation-filters="sRGB">
<feFlood flood-opacity="0" result="BackgroundImageFix"/>
<feBlend mode="normal" in="SourceGraphic" in2="BackgroundImageFix" result="shape"/>
<feGaussianBlur stdDeviation="92.4878" result="effect1_foregroundBlur_7_2778"/>
</filter>
<filter id="filter3_f_7_2778" x="-432.328" y="707.326" width="781.471" height="945.628" filterUnits="userSpaceOnUse" color-interpolation-filters="sRGB">
<feFlood flood-opacity="0" result="BackgroundImageFix"/>
<feBlend mode="normal" in="SourceGraphic" in2="BackgroundImageFix" result="shape"/>
<feGaussianBlur stdDeviation="110.985" result="effect1_foregroundBlur_7_2778"/>
</filter>
<filter id="filter4_f_7_2778" x="-438.68" y="548.901" width="753.822" height="789.198" filterUnits="userSpaceOnUse" color-interpolation-filters="sRGB">
<feFlood flood-opacity="0" result="BackgroundImageFix"/>
<feBlend mode="normal" in="SourceGraphic" in2="BackgroundImageFix" result="shape"/>
<feGaussianBlur stdDeviation="73.9902" result="effect1_foregroundBlur_7_2778"/>
</filter>
<filter id="filter5_f_7_2778" x="-354.635" y="827.702" width="576.609" height="713.101" filterUnits="userSpaceOnUse" color-interpolation-filters="sRGB">
<feFlood flood-opacity="0" result="BackgroundImageFix"/>
<feBlend mode="normal" in="SourceGraphic" in2="BackgroundImageFix" result="shape"/>
<feGaussianBlur stdDeviation="73.9902" result="effect1_foregroundBlur_7_2778"/>
</filter>
<linearGradient id="paint0_linear_7_2778" x1="-63.2177" y1="1115.76" x2="-168.904" y2="668.411" gradientUnits="userSpaceOnUse">
<stop stop-color="#FF0095"/>
<stop offset="1" stop-color="#FFCDFF"/>
</linearGradient>
</defs>
</svg>
