<svg width="431" height="786" viewBox="0 0 431 786" fill="none" xmlns="http://www.w3.org/2000/svg">
<g filter="url(#filter0_f_7_3306)">
<ellipse rx="205.068" ry="130.328" transform="matrix(-0.991489 -0.130192 -0.0978136 0.995205 -47.9596 431.228)" fill="#8349FF"/>
</g>
<g filter="url(#filter1_f_7_3306)">
<path d="M58.5086 408.331C39.8643 377.815 38.7988 354.523 29.4952 318.75C11.5362 249.698 24.763 204.35 3.41765 136.596C-40.1363 -1.65213 -115.452 433.526 -8.32587 513.075C59.0171 563.082 256.073 575.07 196.668 513.075C172.943 488.316 150.237 490.93 123.443 470.778C95.792 449.981 77.5351 439.473 58.5086 408.331Z" fill="url(#paint0_linear_7_3306)"/>
</g>
<g filter="url(#filter2_f_7_3306)">
<path d="M89.1016 400.962C138.077 404.686 170.042 425.582 201.133 474.199C264.117 572.687 -103.876 603.974 -52.6268 495.773C-20.3131 427.551 26.5443 396.205 89.1016 400.962Z" fill="#0013FF"/>
</g>
<g style="mix-blend-mode:screen" filter="url(#filter3_f_7_3306)">
<ellipse rx="126.875" ry="118.163" transform="matrix(-0.984441 -0.175713 -0.132423 0.991193 -42.3998 472.912)" fill="#FFB39B"/>
</g>
<g filter="url(#filter4_f_7_3306)">
<path d="M87.044 428.271C127.766 431.367 154.344 448.742 180.195 489.166C232.565 571.057 -73.4125 597.071 -30.7998 507.104C-3.93172 450.379 35.0291 424.315 87.044 428.271Z" fill="#00FFFF"/>
</g>
<defs>
<filter id="filter0_f_7_3306" x="-473.66" y="76.8082" width="851.4" height="708.839" filterUnits="userSpaceOnUse" color-interpolation-filters="sRGB">
<feFlood flood-opacity="0" result="BackgroundImageFix"/>
<feBlend mode="normal" in="SourceGraphic" in2="BackgroundImageFix" result="shape"/>
<feGaussianBlur stdDeviation="110.985" result="effect1_foregroundBlur_7_3306"/>
</filter>
<filter id="filter1_f_7_3306" x="-248.147" y="-75.3042" width="640.807" height="815.475" filterUnits="userSpaceOnUse" color-interpolation-filters="sRGB">
<feFlood flood-opacity="0" result="BackgroundImageFix"/>
<feBlend mode="normal" in="SourceGraphic" in2="BackgroundImageFix" result="shape"/>
<feGaussianBlur stdDeviation="92.4878" result="effect1_foregroundBlur_7_3306"/>
</filter>
<filter id="filter2_f_7_3306" x="-279.512" y="178.521" width="709.892" height="607.193" filterUnits="userSpaceOnUse" color-interpolation-filters="sRGB">
<feFlood flood-opacity="0" result="BackgroundImageFix"/>
<feBlend mode="normal" in="SourceGraphic" in2="BackgroundImageFix" result="shape"/>
<feGaussianBlur stdDeviation="110.985" result="effect1_foregroundBlur_7_3306"/>
</filter>
<filter id="filter3_f_7_3306" x="-316.271" y="205.685" width="547.742" height="534.455" filterUnits="userSpaceOnUse" color-interpolation-filters="sRGB">
<feFlood flood-opacity="0" result="BackgroundImageFix"/>
<feBlend mode="normal" in="SourceGraphic" in2="BackgroundImageFix" result="shape"/>
<feGaussianBlur stdDeviation="73.9902" result="effect1_foregroundBlur_7_3306"/>
</filter>
<filter id="filter4_f_7_3306" x="-182.865" y="279.899" width="517.092" height="431.701" filterUnits="userSpaceOnUse" color-interpolation-filters="sRGB">
<feFlood flood-opacity="0" result="BackgroundImageFix"/>
<feBlend mode="normal" in="SourceGraphic" in2="BackgroundImageFix" result="shape"/>
<feGaussianBlur stdDeviation="73.9902" result="effect1_foregroundBlur_7_3306"/>
</filter>
<linearGradient id="paint0_linear_7_3306" x1="21.7237" y1="263.286" x2="109.415" y2="483.297" gradientUnits="userSpaceOnUse">
<stop stop-color="#FF0095"/>
<stop offset="1" stop-color="#FFCDFF"/>
</linearGradient>
</defs>
</svg>
